<svg xmlns="http://www.w3.org/2000/svg" viewBox="0 0 35 35" fill="none">
  <g clip-path="url(#clip0)">
    <path d="M0 16C-0.552285 16 -1 16.4477 -1 17C-1 17.5523 -0.552285 18 0 18L0 17L0 16ZM13.2071 17.7071C13.5976 17.3166 13.5976 16.6834 13.2071 16.2929L6.84315 9.92893C6.45262 9.53841 5.81946 9.53841 5.42893 9.92893C5.03841 10.3195 5.03841 10.9526 5.42893 11.3431L11.0858 17L5.42893 22.6569C5.03841 23.0474 5.03841 23.6805 5.42893 24.0711C5.81946 24.4616 6.45262 24.4616 6.84315 24.0711L13.2071 17.7071ZM0 17L0 18L12.5 18V17V16L0 16L0 17Z" fill="#000000" fill-opacity="1"/>
    <path d="M34.5 18C35.0523 18 35.5 17.5523 35.5 17C35.5 16.4477 35.0523 16 34.5 16V17V18ZM21.2929 16.2929C20.9024 16.6834 20.9024 17.3166 21.2929 17.7071L27.6569 24.0711C28.0474 24.4616 28.6805 24.4616 29.0711 24.0711C29.4616 23.6805 29.4616 23.0474 29.0711 22.6569L23.4142 17L29.0711 11.3431C29.4616 10.9526 29.4616 10.3195 29.0711 9.92893C28.6805 9.53841 28.0474 9.53841 27.6569 9.92893L21.2929 16.2929ZM34.5 17V16H22V17V18H34.5V17Z" fill="#000000" fill-opacity="1"/>
  </g>
  <defs>
    <clipPath id="clip0">
      <rect width="35" height="35" fill="white"/>
    </clipPath>
  </defs>
</svg>
